<svg width="33" height="33" viewBox="0 0 33 33" fill="none" xmlns="http://www.w3.org/2000/svg">
<path d="M19.25 11C20.7688 11 22 9.76878 22 8.25C22 6.73122 20.7688 5.5 19.25 5.5C17.7312 5.5 16.5 6.73122 16.5 8.25C16.5 9.76878 17.7312 11 19.25 11Z" stroke="black" stroke-width="2.75" stroke-linecap="round" stroke-linejoin="round"/>
<path d="M5.5 8.25H16.5" stroke="black" stroke-width="2.75" stroke-linecap="round" stroke-linejoin="round"/>
<path d="M22 8.25H27.5" stroke="black" stroke-width="2.75" stroke-linecap="round" stroke-linejoin="round"/>
<path d="M11 19.25C12.5188 19.25 13.75 18.0188 13.75 16.5C13.75 14.9812 12.5188 13.75 11 13.75C9.48122 13.75 8.25 14.9812 8.25 16.5C8.25 18.0188 9.48122 19.25 11 19.25Z" stroke="black" stroke-width="2.75" stroke-linecap="round" stroke-linejoin="round"/>
<path d="M5.5 16.5H8.25" stroke="black" stroke-width="2.75" stroke-linecap="round" stroke-linejoin="round"/>
<path d="M13.75 16.5H27.5" stroke="black" stroke-width="2.75" stroke-linecap="round" stroke-linejoin="round"/>
<path d="M23.375 27.5C24.8938 27.5 26.125 26.2688 26.125 24.75C26.125 23.2312 24.8938 22 23.375 22C21.8562 22 20.625 23.2312 20.625 24.75C20.625 26.2688 21.8562 27.5 23.375 27.5Z" stroke="black" stroke-width="2.75" stroke-linecap="round" stroke-linejoin="round"/>
<path d="M5.5 24.75H20.625" stroke="black" stroke-width="2.75" stroke-linecap="round" stroke-linejoin="round"/>
<path d="M26.125 24.75H27.5" stroke="black" stroke-width="2.75" stroke-linecap="round" stroke-linejoin="round"/>
</svg>